<svg xmlns="http://www.w3.org/2000/svg" id="Main_Map" style="width: 635.37px; height: 422.12px;" viewBox="0 0 1009.61 804.918" x="0px" y="0px" width="1009.61px" height="804.918px" xmlns:xml="http://www.w3.org/XML/1998/namespace" xml:space="preserve" enable-background="new 0 0 1009.606 804.918" xmlns:xlink="http://www.w3.org/1999/xlink" version="1.1">
                    <style type="text/css">
                        .svgmap a:hover {
                            stroke-width: 1;
                            opacity: 0.7;
                            cursor: pointer;
                        }
                        </style>
                    <g>
                    <path fill="#ffffff" fill-rule="evenodd" stroke="#d4d2dd" stroke-linecap="round" stroke-linejoin="round" stroke-miterlimit="10" d="M 550.366 740.518 l 1.46 -7.76 c 0 0 -96.38 -32.66 -115.94 -27.66 c -4.74 1.21 -15.82 -11.25 -15.82 -11.25 l -312.21 -96.66 c 0 0 -11.66 1.67 -26.64 -23.33 c -14.99 -25 -66.61 -109.99 -66.61 -109.99 s -24.97 -35 13.32 -66.669 c 38.3 -31.66 434.689 -343.4 434.689 -343.4 s 31.55 -28.68 146.44 -45.34 h 79.93 c 0 0 33.3 -7.9 31.64 42.1 c -1.67 49.99 -0.84 116.66 -0.84 116.66 s 111.971 184.15 115.301 188.32 c 3.33 4.17 3.02 10 5.52 21.66 c 2.49 11.67 6.561 55 6.561 55 s 3.33 244.15 1.67 243.32 c -0.57 -0.289 -18.73 31.11 -18.73 31.11 h -242.7 c 0 0 0.14 30.93 0 33.33 c 0 0.021 10.55 13.89 10.55 13.89 s 149.11 3.311 193.86 0.02 c 15.39 -1.129 32.351 -13.409 34.82 -29.459 c 3.05 -23.061 10.96 -29.721 12.63 -33.891 c 10.4 -23.75 34.77 -23.17 36.73 -23.49 c 4.06 -0.68 2.289 -6.439 3.229 -9.84 c 3.47 -22.779 -0.42 -51.109 9.989 -77.5 c 12.9 -26.939 33.99 -37.5 52.871 -43.33 c 22.959 -7.34 46.359 -0.75 67.189 6.801 c 0.641 0.24 0.2 22.88 -0.08 22.699 c -23.42 -14.81 -39.62 -14.41 -56.29 -12 c -13.739 5.42 -49.12 14.58 -52.45 65.41 c 0.551 20.7 0 39.17 0 39.17 s 5.9 11.12 6.66 9.86 c 4.28 -7.12 48.29 20.55 47.73 56.66 c 5.55 43.89 -40.24 62.22 -49.95 65.55 c -1.149 2.109 -3.81 5.05 -9.12 3.62 c -5.311 -1.42 -100.8 -0.28 -108.55 -0.28 l -616.95 -0.529 v -37.91 l 370.51 -1.561 C 539.126 753.848 550.366 740.518 550.366 740.518 Z"/>
                    <path fill="#b8d6ad" fill-rule="evenodd" d="M 513.427 700.979 l -393.54 -119.58 c 0 0 -10.2 1.459 -23.32 -20.42 c -13.12 -21.871 -58.3 -96.24 -58.3 -96.24 s -21.86 -30.621 11.66 -58.33 c 33.52 -27.71 377.51 -300.82 377.51 -300.82 s 61.73 -58.37 131.18 -71.66 c 0 0 -32.81 13.29 -18.38 53.29 c 0.49 1.36 14.761 14.59 20.14 17.02 c 5.391 2.42 3.58 100.93 3.58 100.93 s -1.27 498.68 0.561 496.85 c 0.97 -0.979 -20.48 1.45 -21.94 1.45 C 541.126 703.468 513.427 700.979 513.427 700.979 Z"/>
                    <a id="Section_1_B_Open">
                    <path fill="#0a5029" fill-rule="evenodd" d="M 584.076 432.198 v 256.65 h 240.08 c 0 0 6.78 -2.17 7.841 -3.15 c 0.77 -0.709 1.85 -7.6 1.85 -7.6 v -245.9 H 584.076 Z"/>
                                    </a>
                    <a id="Section_1_A_Open">
                    <polygon fill="#0a5029" fill-rule="evenodd" points="585.747,418.868 822.196,418.868 822.196,367.198 703.966,168.878 703.966,150.548 585.747,150.548"/>
                                    </a>
                    <path fill="#0c80c0" fill-rule="evenodd" d="M 585.747 135.548 v -28.33 c 0 0 18.869 -12.78 21.649 -21.67 c 2.771 -8.88 -24.979 -54.99 -24.979 -54.99 h 121.549 v 104.99 H 585.747 Z"/>
                    <path fill="#ffffff" fill-rule="evenodd" d="M 535.796 68.058 c 0 -21.63 17.521 -39.17 39.131 -39.17 c 21.609 0 39.13 17.54 39.13 39.17 c 0 17.44 -11.39 32.21 -27.13 37.28 c -1.17 0.38 0.959 622.33 -0.25 622.6 c -2.721 0.601 -8.86 0.91 -11.75 0.91 c -2.271 0 -7.82 -0.189 -9.98 -0.56 c -1.34 -0.23 0.68 -622.16 -0.609 -622.521 C 547.866 101.148 535.796 86.018 535.796 68.058 Z"/>
                    <rect fill="none" fill-rule="evenodd" x="304.336" y="396.198" width="136.54" height="38"/>
                    <text class="FontOSRegular" fill="#010101" transform="matrix(1, 0, 0, 1, 327.869, 408.212)">Future Graves</text>
                    <text class="FontOSRegular" fill="#ffffff" transform="matrix(1, 0, 0, 1, 620.606, 79.5083)">Section F</text>
                    <text class="FontOSRegular" fill="#ffffff" transform="matrix(1, 0, 0, 1, 620.606, 96.3081)">Reserved</text>
                    <text class="FontOSRegular" fill="#ffffff" transform="matrix(1, 0, 0, 1, 620.606, 290.508)">Section 1</text>
                    <text class="FontOSRegular" fill="#ffffff" transform="matrix(1, 0, 0, 1, 620.606, 306.908)">(Row 9 - 17)</text>
                    <text class="FontOSRegular" fill="#ffffff" transform="matrix(1, 0, 0, 1, 620.606, 555.508)">Section 1</text>
                    <text class="FontOSRegular" fill="#ffffff" transform="matrix(1, 0, 0, 1, 620.606, 571.908)">(Row 1 - 8)</text>
                                </g>
                            </svg>